<svg width="22" height="25" viewBox="0 0 22 25" fill="none" xmlns="http://www.w3.org/2000/svg">
<path fill-rule="evenodd" clip-rule="evenodd" d="M9.42857 0C9.13682 0.00015492 8.85087 0.0810674 8.60275 0.233676C8.35462 0.386284 8.15413 0.604561 8.02371 0.864062L6.886 3.125H1.57143C1.15466 3.125 0.754961 3.28962 0.460261 3.58265C0.165561 3.87567 0 4.2731 0 4.6875C0 5.1019 0.165561 5.49933 0.460261 5.79235C0.754961 6.08538 1.15466 6.25 1.57143 6.25V21.875C1.57143 22.7038 1.90255 23.4987 2.49195 24.0847C3.08135 24.6708 3.88075 25 4.71429 25H17.2857C18.1193 25 18.9186 24.6708 19.508 24.0847C20.0974 23.4987 20.4286 22.7038 20.4286 21.875V6.25C20.8453 6.25 21.245 6.08538 21.5397 5.79235C21.8344 5.49933 22 5.1019 22 4.6875C22 4.2731 21.8344 3.87567 21.5397 3.58265C21.245 3.28962 20.8453 3.125 20.4286 3.125H15.114L13.9763 0.864062C13.8459 0.604561 13.6454 0.386284 13.3973 0.233676C13.1491 0.0810674 12.8632 0.00015492 12.5714 0H9.42857ZM6.28571 9.375C6.28571 8.9606 6.45127 8.56317 6.74598 8.27015C7.04068 7.97712 7.44037 7.8125 7.85714 7.8125C8.27391 7.8125 8.67361 7.97712 8.96831 8.27015C9.26301 8.56317 9.42857 8.9606 9.42857 9.375V18.75C9.42857 19.1644 9.26301 19.5618 8.96831 19.8549C8.67361 20.1479 8.27391 20.3125 7.85714 20.3125C7.44037 20.3125 7.04068 20.1479 6.74598 19.8549C6.45127 19.5618 6.28571 19.1644 6.28571 18.75V9.375ZM14.1429 7.8125C13.7261 7.8125 13.3264 7.97712 13.0317 8.27015C12.737 8.56317 12.5714 8.9606 12.5714 9.375V18.75C12.5714 19.1644 12.737 19.5618 13.0317 19.8549C13.3264 20.1479 13.7261 20.3125 14.1429 20.3125C14.5596 20.3125 14.9593 20.1479 15.254 19.8549C15.5487 19.5618 15.7143 19.1644 15.7143 18.75V9.375C15.7143 8.9606 15.5487 8.56317 15.254 8.27015C14.9593 7.97712 14.5596 7.8125 14.1429 7.8125Z" fill="#DE1C1C"/>
</svg>
