<svg width="23" height="23" viewBox="0 0 23 23" fill="none" xmlns="http://www.w3.org/2000/svg">
<path d="M17.3608 1.00133C17.6634 0.688063 18.0253 0.438188 18.4255 0.266289C18.8256 0.0943897 19.256 0.00390831 19.6915 0.00012384C20.1271 -0.00366063 20.559 0.079328 20.962 0.244247C21.3651 0.409166 21.7314 0.652713 22.0393 0.960677C22.3473 1.26864 22.5908 1.63485 22.7558 2.03795C22.9207 2.44104 23.0037 2.87295 22.9999 3.30846C22.9961 3.74397 22.9056 4.17436 22.7337 4.57453C22.5618 4.9747 22.3119 5.33663 21.9987 5.63919L20.6982 6.93969L16.0603 2.30184L17.3608 1.00133ZM13.7414 4.62076L0 18.3621V23H4.63786L18.3809 9.25862L13.7414 4.62076Z" fill="black"/>
</svg>
