<svg width="139" height="73" viewBox="0 0 139 73" fill="none" xmlns="http://www.w3.org/2000/svg">
<path d="M29.1672 0.110153C28.112 0.50174 27.6008 1.36106 27.6008 2.68811C27.6117 3.37339 27.5682 3.56918 27.4159 3.71059C27.3071 3.80849 27.1331 4.08042 27.0243 4.31973C26.8285 4.74395 26.8176 4.75483 26.2411 4.75483C25.632 4.75483 25.1643 4.92886 24.8923 5.25519C24.7292 5.45098 23.9677 5.8317 23.7393 5.84258C23.6523 5.84258 23.5979 5.54888 23.5761 4.88535L23.5435 3.93902L22.8582 3.50392L22.1838 3.06882L22.2491 2.02458C22.2817 1.44808 22.2817 0.871574 22.2382 0.730164C22.173 0.512619 22.1077 0.49086 21.64 0.53437C20.8241 0.610512 20.6284 0.806305 20.2368 1.88318C20.0518 2.4053 19.7799 2.9818 19.6494 3.16672C19.421 3.48216 19.0402 4.39587 18.5834 5.78819C18.4202 6.26679 18.3767 6.604 18.4202 7.03909C18.4746 7.62647 18.4855 7.64823 19.6059 8.73598L20.748 9.84548L20.4326 10.9115C19.8778 12.7498 19.6603 14.0551 19.6603 15.4147C19.6603 17.0028 19.8778 18.058 20.8133 20.9296C21.2049 22.137 21.5529 23.3118 21.5964 23.5511C21.6617 23.9862 21.6617 23.9971 21.2157 24.1276C20.4761 24.3451 20.4761 24.356 20.8894 26.3575C21.2484 28.1414 21.2592 28.1522 21.0526 28.5003C19.6167 30.9369 18.8771 32.9927 18.5943 35.3749C18.529 35.9079 18.4311 36.5279 18.3767 36.7346C18.3223 36.9412 17.7893 37.7788 17.1911 38.5728C15.4616 40.9006 14.7001 42.4343 13.917 45.132C13.6015 46.2197 12.8945 49.4068 12.6008 51.0167C12.5246 51.4191 12.4267 51.7454 12.3941 51.7454C12.3071 51.7454 11.8502 50.7447 11.8502 50.5489C11.8502 50.4837 11.6653 50.3531 11.4478 50.2552C10.4035 49.8201 8.65227 50.6468 8.13015 51.8107C7.97787 52.1588 7.93436 52.496 7.95611 53.2792C7.96699 54.0188 7.93436 54.3887 7.80383 54.6171L7.64067 54.9217L7.06416 53.5294C6.54204 52.2567 6.48766 52.0283 6.43327 51.0928C6.368 49.7875 6.55292 49.0043 7.27083 47.5576C8.16278 45.7737 9.33755 43.1631 9.72914 42.1189C10.5341 39.9978 10.8495 37.8114 10.6537 35.7447C10.3927 33.0145 9.5551 31.8288 8.06489 32.1225C7.81471 32.1769 7.6733 32.3074 7.46663 32.699C6.98802 33.5801 6.92275 34.0805 7.06416 36.1472C7.28171 39.2799 7.1403 39.7694 4.82341 44.3053C3.1374 47.6229 2.85459 48.3734 2.74581 49.9507C2.6044 52.0826 3.15915 54.1602 4.69288 57.1842L5.65009 59.0877L5.47605 59.8927C5.32377 60.5779 5.31289 60.8064 5.42167 61.4264C5.67185 62.8187 6.28098 63.7542 7.49926 64.657C8.18454 65.1574 8.43472 65.4184 8.32595 65.5381C8.28244 65.5816 7.9126 65.6142 7.49926 65.6033C6.901 65.6033 6.63994 65.5381 6.04168 65.2444C5.46518 64.9616 5.2585 64.9072 4.94306 64.9724C4.61673 65.0268 4.49708 64.9942 4.25778 64.7766C3.67039 64.2219 3.46372 64.1457 2.95248 64.2872C2.6044 64.3851 2.41949 64.3742 2.16931 64.2763C1.98439 64.2001 1.70157 64.0914 1.51666 64.0152C1.23384 63.8956 1.1577 63.9064 0.896643 64.1022C0.35277 64.4938 0.0699559 65.2661 0.0155686 66.4409C-0.0496962 67.8441 0.0699559 68.1704 0.766113 68.6055C1.09244 68.8013 1.37525 69.0732 1.48403 69.3125C1.67982 69.7259 2.06053 69.9108 2.72406 69.9108C3.07213 69.9108 3.22442 69.9869 3.56162 70.3241C4.06198 70.8245 4.74726 71.0421 5.76974 71.0312C6.57468 71.0312 7.28171 70.7592 8.2498 70.0848C8.56525 69.8673 8.8807 69.6933 8.93508 69.6933C10.9148 69.6933 12.1439 69.5736 13.4601 69.269C14.2542 69.0841 15.0156 68.9318 15.157 68.9318C15.331 68.9318 15.603 69.1711 16.1033 69.7694C16.6363 70.422 16.9083 70.6505 17.289 70.781C17.5609 70.8898 17.9634 71.14 18.1918 71.3575C18.4202 71.5859 18.6487 71.76 18.6922 71.76C18.7357 71.76 18.8771 71.9558 19.0185 72.1951C19.3557 72.8042 19.8234 72.9891 20.9873 73C21.9336 73 22.6951 72.8151 23.9786 72.2386C24.7183 71.9123 26.1323 71.0747 26.8394 70.5417L27.4159 70.1066L27.3941 69.4975L27.3615 68.8992L28.9387 68.5838C29.9068 68.388 30.8749 68.2574 31.4841 68.2574C32.3978 68.2466 32.5283 68.2683 33.442 68.6708C34.3122 69.0406 34.5189 69.0841 35.2912 69.0841C35.9873 69.0841 36.3028 69.0189 36.8684 68.7795C37.26 68.6164 37.9453 68.4315 38.3912 68.3662C38.8372 68.3009 39.3267 68.1704 39.4681 68.0725C39.8053 67.855 40.2839 66.7998 40.458 65.9079C40.5667 65.364 40.5667 65.1247 40.458 64.7658C40.2948 64.2001 40.1425 64.0261 39.3267 63.4278C38.9677 63.1668 38.5762 62.7752 38.4565 62.5468C38.2607 62.1987 38.1193 62.1008 37.521 61.8941C36.0526 61.3938 35.4652 61.6004 33.6922 63.2647C32.6806 64.211 32.6044 64.2545 32.1367 64.2545C31.8648 64.2545 31.6472 64.2328 31.6472 64.2001C31.6472 64.1675 32.2237 63.5475 32.9308 62.8078C34.8669 60.8064 35.2368 60.1646 35.2368 58.8484C35.2368 58.1631 35.2477 58.1305 35.748 57.5758C36.4442 56.8143 36.7814 56.0203 36.8358 55.0739L36.8793 54.3016L36.3354 53.736C35.6828 53.0725 35.1824 52.8876 34.2034 52.9746C33.1918 53.0616 32.3978 53.4206 30.6465 54.6062C29.7545 55.2045 29.004 55.6722 28.9714 55.6287C28.8735 55.5417 29.2324 54.6497 30.2875 52.3981C31.4732 49.8636 31.6798 49.5482 32.7132 48.678C34.7473 46.9485 37.4231 43.9354 38.3477 42.3147C38.9025 41.3357 39.3702 39.976 39.3702 39.3125C39.3702 39.0623 39.4246 38.6707 39.4899 38.4423L39.5986 38.0398H40.7843C42.0026 38.0398 42.7205 38.116 45.0265 38.4858C46.5602 38.736 48.2789 38.7795 49.1599 38.5946C49.7364 38.4749 49.7691 38.4423 50.1171 37.8223C50.7589 36.6475 50.5631 35.5598 49.2578 33.2973C48.3006 31.633 47.6371 30.1428 46.9627 28.087C46.4841 26.662 46.4079 26.3139 46.3644 25.3132C46.3318 24.6171 46.3753 23.562 46.4841 22.6265C46.7669 20.1138 46.7778 20.1791 45.9293 19.0587C44.7437 17.4923 44.2107 17.34 42.6443 18.1123C41.3825 18.7324 41.1324 18.765 40.3601 18.4169C39.6313 18.0906 39.3049 18.0688 38.9569 18.2973C38.3695 18.7215 37.6298 20.5707 37.5972 21.7345C37.5754 22.3981 37.6081 22.5068 37.9344 22.9637C38.5218 23.7795 38.3369 23.91 36.8684 23.6707C36.4659 23.5946 35.9982 23.5728 35.8459 23.6163C35.4108 23.7251 35.128 24.2799 35.128 24.9869C35.1389 26.4989 36.4659 27.815 37.8691 27.6845C38.2933 27.641 38.4783 27.5431 38.8807 27.1733C39.2506 26.8361 39.4572 26.7273 39.7292 26.7273C40.0555 26.7273 40.1316 26.7817 40.3927 27.2712C40.8495 28.1087 41.078 28.1631 42.3289 27.728C42.6661 27.6084 42.8836 27.5866 42.938 27.6519C43.1012 27.8259 43.6015 29.1638 43.7321 29.773C43.8626 30.3712 43.83 32.3183 43.6886 32.4597C43.471 32.6664 42.405 32.0681 40.0229 30.4147C38.9134 29.6425 38.5653 29.4902 37.6298 29.3814C37.3035 29.3488 36.7596 29.24 36.4224 29.153L35.8133 28.9898L35.748 28.4024C35.7045 27.9673 35.5196 27.4996 35.0192 26.5641L34.3557 25.3132H33.616H32.8872L32.6479 24.5736C32.5174 24.1602 32.4086 23.7904 32.4086 23.7577C32.4086 23.7142 32.6044 23.7795 32.8437 23.8992C33.0722 24.0188 33.3767 24.1167 33.4964 24.1167C33.888 24.1167 33.7031 23.7577 33.1918 23.5184C32.9308 23.3988 32.7567 23.2574 32.8002 23.2139C32.8437 23.1704 33.1918 23.1377 33.5725 23.1377C34.1055 23.1377 34.2796 23.0942 34.334 22.9637C34.4427 22.6809 34.1382 22.583 33.3659 22.6591C32.4304 22.7461 32.376 22.5612 33.2027 22.0391C33.8988 21.5931 34.2252 20.9949 34.3231 19.9833L34.3883 19.2762L33.8988 18.9064C33.616 18.6997 33.3767 18.4713 33.3441 18.3843C33.268 18.1885 33.4746 17.2313 33.6052 17.1551C33.6595 17.1225 34.149 17.1443 34.682 17.1986C35.4761 17.2748 35.7045 17.2639 35.8459 17.1443C36.1396 16.9049 36.3463 16.2958 36.2701 15.9369C36.2049 15.6649 36.2484 15.5453 36.5094 15.2733C37.0098 14.7403 38.3586 12.5866 38.5 12.0971C38.5653 11.8578 38.6088 11.3248 38.587 10.9115C38.5544 10.2044 38.5326 10.15 38.239 9.97601C38.0432 9.87811 37.7603 9.53003 37.5537 9.13844C37.0642 8.25737 36.727 8.10508 34.9648 8.0507C33.7574 8.00719 33.0178 8.08333 31.9192 8.39877C31.7342 8.45316 31.6363 8.32263 31.2991 7.6156C30.5812 6.08188 30.516 5.36396 31.049 4.64605C31.7777 3.6562 31.6037 2.70986 30.5703 1.99195L30.1353 1.68739L30.1026 0.849815C30.07 0.0557632 30.0591 0.0231323 29.798 0.00137329C29.6458 -0.0094986 29.3629 0.0448837 29.1672 0.110153Z" fill="#B06E0E"/>
<path d="M63.6 25V29.24C63.6 29.3733 63.6667 29.44 63.8 29.44H65.4C65.5333 29.44 65.6 29.3733 65.6 29.24V22.04L62.44 20.64C62.2 20.56 61.8667 20.4267 61.44 20.24C61.0133 20.0267 60.6267 19.72 60.28 19.32C59.96 18.92 59.8 18.3733 59.8 17.68V8.56C59.8 7.44 60.1467 6.54666 60.84 5.88C61.5333 5.18666 62.44 4.84 63.56 4.84H65.64C66.76 4.84 67.6667 5.18666 68.36 5.88C69.0533 6.54666 69.4 7.44 69.4 8.56V14.48L65.6 14.16V8.76C65.6 8.62667 65.5333 8.56 65.4 8.56H63.8C63.6667 8.56 63.6 8.62667 63.6 8.76V17.12L66.76 18.52C67 18.6267 67.3333 18.7733 67.76 18.96C68.1867 19.1467 68.56 19.44 68.88 19.84C69.2267 20.24 69.4 20.7867 69.4 21.48V29.44C69.4 30.56 69.0533 31.4667 68.36 32.16C67.6667 32.8267 66.76 33.16 65.64 33.16H63.56C62.44 33.16 61.5333 32.8267 60.84 32.16C60.1467 31.4667 59.8 30.56 59.8 29.44V25H63.6ZM81.4109 20.84V29.44C81.4109 30.56 81.0643 31.4667 80.3709 32.16C79.6776 32.8267 78.7709 33.16 77.6509 33.16H74.7709C73.6509 33.16 72.7443 32.8267 72.0509 32.16C71.3576 31.4667 71.0109 30.56 71.0109 29.44V8.56C71.0109 7.44 71.3576 6.54666 72.0509 5.88C72.7443 5.18666 73.6509 4.84 74.7709 4.84H77.6509C78.7709 4.84 79.6776 5.18666 80.3709 5.88C81.0643 6.54666 81.4109 7.44 81.4109 8.56V17.52L77.6109 17.12V8.76C77.6109 8.62667 77.5443 8.56 77.4109 8.56H75.0109C74.8776 8.56 74.8109 8.62667 74.8109 8.76V29.24C74.8109 29.3733 74.8776 29.44 75.0109 29.44H77.4109C77.5443 29.44 77.6109 29.3733 77.6109 29.24V20.84H81.4109ZM93.5984 29.44C93.5984 30.56 93.2518 31.4667 92.5584 32.16C91.8651 32.8267 90.9584 33.16 89.8384 33.16H86.9584C85.8384 33.16 84.9318 32.8267 84.2384 32.16C83.5451 31.4667 83.1984 30.56 83.1984 29.44V8.56C83.1984 7.44 83.5451 6.54666 84.2384 5.88C84.9318 5.18666 85.8384 4.84 86.9584 4.84H89.8384C90.9584 4.84 91.8651 5.18666 92.5584 5.88C93.2518 6.54666 93.5984 7.44 93.5984 8.56V29.44ZM87.1984 8.56C87.0651 8.56 86.9984 8.62667 86.9984 8.76V29.24C86.9984 29.3733 87.0651 29.44 87.1984 29.44H89.5984C89.7318 29.44 89.7984 29.3733 89.7984 29.24V8.76C89.7984 8.62667 89.7318 8.56 89.5984 8.56H87.1984ZM105.786 29.44C105.786 30.56 105.439 31.4667 104.746 32.16C104.053 32.8267 103.146 33.16 102.026 33.16H99.1459C98.0259 33.16 97.1193 32.8267 96.4259 32.16C95.7326 31.4667 95.3859 30.56 95.3859 29.44V8.56C95.3859 7.44 95.7326 6.54666 96.4259 5.88C97.1193 5.18666 98.0259 4.84 99.1459 4.84H102.026C103.146 4.84 104.053 5.18666 104.746 5.88C105.439 6.54666 105.786 7.44 105.786 8.56V29.44ZM99.3859 8.56C99.2526 8.56 99.1859 8.62667 99.1859 8.76V29.24C99.1859 29.3733 99.2526 29.44 99.3859 29.44H101.786C101.919 29.44 101.986 29.3733 101.986 29.24V8.76C101.986 8.62667 101.919 8.56 101.786 8.56H99.3859ZM107.769 33.28V8.72H107.169L107.569 5H113.889C115.009 5 115.915 5.34667 116.609 6.04C117.302 6.70667 117.649 7.6 117.649 8.72V17.12C117.649 17.4933 117.595 17.8533 117.489 18.2C118.129 18.8933 118.449 19.7733 118.449 20.84V29.56C118.449 30.68 118.022 31.5867 117.169 32.28C116.342 32.9467 115.369 33.28 114.249 33.28H107.769ZM113.649 8.72H111.569V17.12H113.649C113.782 17.12 113.849 17.0533 113.849 16.92V8.92C113.849 8.78666 113.782 8.72 113.649 8.72ZM114.449 20.84H111.569V29.56H114.449C114.582 29.56 114.649 29.4933 114.649 29.36V21.04C114.649 20.9067 114.582 20.84 114.449 20.84ZM126.933 20.64V33H123.133V20.64L118.453 5H122.253L125.053 14.32L127.813 5H131.613L126.933 20.64ZM59.8 71.28V46.72H59.2L59.6 43H65.92C67.04 43 67.9467 43.3467 68.64 44.04C69.3333 44.7067 69.68 45.6 69.68 46.72V55.12C69.68 55.4933 69.6267 55.8533 69.52 56.2C70.16 56.8933 70.48 57.7733 70.48 58.84V67.56C70.48 68.68 70.0533 69.5867 69.2 70.28C68.3733 70.9467 67.4 71.28 66.28 71.28H59.8ZM65.68 46.72H63.6V55.12H65.68C65.8133 55.12 65.88 55.0533 65.88 54.92V46.92C65.88 46.7867 65.8133 46.72 65.68 46.72ZM66.48 58.84H63.6V67.56H66.48C66.6133 67.56 66.68 67.4933 66.68 67.36V59.04C66.68 58.9067 66.6133 58.84 66.48 58.84ZM82.2656 67.44C82.2656 68.56 81.919 69.4667 81.2256 70.16C80.5323 70.8267 79.6256 71.16 78.5056 71.16H76.0256C74.9056 71.16 73.999 70.8267 73.3056 70.16C72.6123 69.4667 72.2656 68.56 72.2656 67.44V46.72H71.6656L72.0656 43H76.0656V67.24C76.0656 67.3733 76.1323 67.44 76.2656 67.44H78.2656C78.399 67.44 78.4656 67.3733 78.4656 67.24V43.08H82.2656V67.44ZM83.4625 46.72L83.8625 43H90.1825C91.3025 43 92.2092 43.3467 92.9025 44.04C93.5958 44.7067 93.9425 45.6 93.9425 46.72V59.24C93.9425 59.8267 93.8225 60.36 93.5825 60.84C93.3425 61.2933 93.0225 61.68 92.6225 62L95.1825 71H91.3425L89.0625 62.96H87.8625V71H84.0625V46.72H83.4625ZM89.9425 46.72H87.8625V59.24H89.9425C90.0758 59.24 90.1425 59.1733 90.1425 59.04V46.92C90.1425 46.7867 90.0758 46.72 89.9425 46.72ZM106.177 67.28C106.177 68.4 105.83 69.3067 105.137 70C104.443 70.6667 103.537 71 102.417 71H99.5366C98.4166 71 97.5099 70.6667 96.8166 70C96.1232 69.3067 95.7766 68.4 95.7766 67.28V46.72C95.7766 45.6 96.1232 44.7067 96.8166 44.04C97.5099 43.3467 98.4166 43 99.5366 43H102.417C103.537 43 104.443 43.3467 105.137 44.04C105.83 44.7067 106.177 45.6 106.177 46.72V53.12H102.377V46.92C102.377 46.7867 102.31 46.72 102.177 46.72H99.7766C99.6432 46.72 99.5766 46.7867 99.5766 46.92V67.08C99.5766 67.2133 99.6432 67.28 99.7766 67.28H102.177C102.31 67.28 102.377 67.2133 102.377 67.08V58.8H100.817L101.137 55.08H106.177V67.28Z" fill="#B06E0E"/>
<path d="M120 38C118.674 38 117.402 38.5268 116.464 39.4645C115.527 40.4021 115 41.6739 115 43C115 43.8875 115.282 46.125 115.605 48.4375C115.937 50.805 116.335 53.3975 116.597 55.09C116.719 55.9056 117.129 56.6504 117.754 57.1888C118.378 57.7273 119.175 58.0234 120 58.0234C120.825 58.0234 121.622 57.7273 122.246 57.1888C122.871 56.6504 123.281 55.9056 123.403 55.09C123.665 53.3975 124.063 50.805 124.395 48.4375C124.72 46.1225 125 43.8875 125 43C125 41.6739 124.473 40.4021 123.536 39.4645C122.598 38.5268 121.326 38 120 38ZM120 71C120.492 71 120.98 70.903 121.435 70.7145C121.89 70.5261 122.303 70.2499 122.652 69.9016C123 69.5534 123.276 69.14 123.465 68.6851C123.653 68.2301 123.75 67.7425 123.75 67.25C123.75 66.7575 123.653 66.2699 123.465 65.8149C123.276 65.36 123 64.9466 122.652 64.5983C122.303 64.2501 121.89 63.9739 121.435 63.7855C120.98 63.597 120.492 63.5 120 63.5C119.005 63.5 118.052 63.8951 117.348 64.5983C116.645 65.3016 116.25 66.2554 116.25 67.25C116.25 68.2446 116.645 69.1984 117.348 69.9016C118.052 70.6049 119.005 71 120 71Z" fill="#B06E0E"/>
<path d="M124.905 67.0742C124.861 67.049 124.814 67.0249 124.764 67.0013C124.814 66.9778 124.861 66.9537 124.905 66.9285C125.15 66.7889 125.366 66.602 125.539 66.3787C125.712 66.1554 125.839 65.9001 125.913 65.6274C125.987 65.3547 126.007 65.0701 125.97 64.79C125.934 64.5098 125.842 64.2396 125.701 63.9949C125.56 63.7502 125.372 63.5359 125.147 63.3643C124.923 63.1926 124.667 63.0671 124.393 62.9949C124.12 62.9227 123.836 62.9052 123.556 62.9435C123.276 62.9817 123.006 63.075 122.762 63.2179C122.719 63.2431 122.674 63.2715 122.63 63.3031C122.634 63.2495 122.636 63.1959 122.636 63.1424C122.636 62.5742 122.411 62.0293 122.009 61.6275C121.607 61.2257 121.062 61 120.494 61C119.926 61 119.381 61.2257 118.979 61.6275C118.577 62.0293 118.352 62.5742 118.352 63.1424C118.352 63.1927 118.352 63.2463 118.359 63.3031C118.314 63.2725 118.269 63.2431 118.226 63.2179C117.982 63.075 117.713 62.9817 117.433 62.9435C117.153 62.9052 116.868 62.9227 116.595 62.9949C116.322 63.0671 116.065 63.1926 115.841 63.3643C115.617 63.5359 115.428 63.7502 115.287 63.9949C115.146 64.2396 115.054 64.5098 115.018 64.79C114.981 65.0701 115.001 65.3547 115.075 65.6274C115.149 65.9001 115.276 66.1554 115.449 66.3787C115.622 66.602 115.838 66.7889 116.083 66.9285C116.127 66.9537 116.175 66.9778 116.224 67.0013C116.175 67.0249 116.127 67.049 116.083 67.0742C115.838 67.2138 115.622 67.4007 115.449 67.624C115.276 67.8473 115.149 68.1026 115.075 68.3753C115.001 68.6479 114.981 68.9325 115.018 69.2127C115.054 69.4929 115.146 69.7631 115.287 70.0078C115.428 70.2525 115.617 70.4668 115.841 70.6384C116.065 70.81 116.322 70.9356 116.595 71.0078C116.868 71.08 117.153 71.0975 117.433 71.0592C117.713 71.0209 117.982 70.9277 118.226 70.7848C118.269 70.7596 118.314 70.7312 118.359 70.6996C118.354 70.7532 118.352 70.8067 118.352 70.8576C118.352 71.4258 118.577 71.9707 118.979 72.3725C119.381 72.7743 119.926 73 120.494 73C121.062 73 121.607 72.7743 122.009 72.3725C122.411 71.9707 122.636 71.4258 122.636 70.8576C122.636 70.8073 122.634 70.7537 122.63 70.6996C122.674 70.7301 122.719 70.7596 122.762 70.7848C123.087 70.9728 123.455 71.0718 123.83 71.0719C124.019 71.0716 124.206 71.0468 124.388 70.9979C124.798 70.8882 125.165 70.6596 125.445 70.341C125.724 70.0224 125.903 69.6281 125.958 69.208C126.013 68.7879 125.943 68.3608 125.755 67.9808C125.568 67.6008 125.272 67.2849 124.905 67.0731V67.0742ZM120.494 68.501C120.198 68.501 119.908 68.413 119.661 68.2483C119.414 68.0835 119.222 67.8493 119.109 67.5752C118.995 67.3012 118.965 66.9997 119.023 66.7088C119.081 66.4179 119.224 66.1506 119.434 65.9409C119.643 65.7312 119.911 65.5884 120.202 65.5305C120.492 65.4726 120.794 65.5023 121.068 65.6158C121.342 65.7293 121.576 65.9216 121.741 66.1682C121.906 66.4148 121.994 66.7047 121.994 67.0013C121.994 67.3991 121.836 67.7805 121.555 68.0618C121.273 68.343 120.892 68.501 120.494 68.501Z" fill="#8D2F0D"/>
</svg>
